<?xml version="1.0" encoding="utf-8"?>
<!-- Generator: Adobe Illustrator 23.0.3, SVG Export Plug-In . SVG Version: 6.00 Build 0)  -->
<svg version="1.1" id="Layer_1" xmlns="http://www.w3.org/2000/svg" xmlns:xlink="http://www.w3.org/1999/xlink" x="0px" y="0px"
	 viewBox="0 0 56 70" style="enable-background:new 0 0 56 70;" xml:space="preserve">
<title>100 - Handwriting Detection</title>
<desc>Created with Sketch.</desc>
<g>
	<g>
		<path d="M26.2,11c0.4,1,0.6,1.9,0.7,3v0c0.1,0.5,0.1,1,0.1,1.5c0,0.5,0,0.9-0.1,1.4c-0.2,1.4-0.6,2.8-1.2,4.1v0c0,0,0,0,0,0.1
			c-0.5,1-1.1,1.9-1.8,2.7L34,21.2V19c0-0.7,0.2-1.3,0.5-1.9L26.2,11z M26.2,11c0.4,1,0.6,1.9,0.7,3v0c0.1,0.5,0.1,1,0.1,1.5
			c0,0.5,0,0.9-0.1,1.4c-0.2,1.4-0.6,2.8-1.2,4.1v0c0,0,0,0,0,0.1c-0.5,1-1.1,1.9-1.8,2.7L34,21.2V19c0-0.7,0.2-1.3,0.5-1.9L26.2,11
			z M26.2,11c0.4,1,0.6,1.9,0.7,3v0c0.1,0.5,0.1,1,0.1,1.5c0,0.5,0,0.9-0.1,1.4c-0.2,1.4-0.6,2.8-1.2,4.1v0c0,0,0,0,0,0.1
			c-0.5,1-1.1,1.9-1.8,2.7L34,21.2V19c0-0.7,0.2-1.3,0.5-1.9L26.2,11z M26.2,11c0.4,1,0.6,1.9,0.7,3v0c0.1,0.5,0.1,1,0.1,1.5
			c0,0.5,0,0.9-0.1,1.4c-0.2,1.4-0.6,2.8-1.2,4.1v0c0,0,0,0,0,0.1c-0.5,1-1.1,1.9-1.8,2.7L34,21.2V19c0-0.7,0.2-1.3,0.5-1.9L26.2,11
			z M26.2,11c0.4,1,0.6,1.9,0.7,3v0c0.1,0.5,0.1,1,0.1,1.5c0,0.5,0,0.9-0.1,1.4c-0.2,1.4-0.6,2.8-1.2,4.1v0c0,0,0,0,0,0.1
			c-0.5,1-1.1,1.9-1.8,2.7L34,21.2V19c0-0.7,0.2-1.3,0.5-1.9L26.2,11z M26.2,11c0.4,1,0.6,1.9,0.7,3v0c0.1,0.5,0.1,1,0.1,1.5
			c0,0.5,0,0.9-0.1,1.4c-0.2,1.4-0.6,2.8-1.2,4.1v0c0,0,0,0,0,0.1c-0.5,1-1.1,1.9-1.8,2.7L34,21.2V19c0-0.7,0.2-1.3,0.5-1.9L26.2,11
			z M54,17h-0.4l-1.2,2.3c-0.5,1-1.6,1.7-2.7,1.7h-7.5c-1.1,0-2.2-0.6-2.7-1.7L38.4,17H38c-0.5,0-1,0.2-1.4,0.6
			C36.2,18,36,18.5,36,19v35c0,1.1,0.9,2,2,2h16c1.1,0,2-0.9,2-2V19C56,17.9,55.1,17,54,17z M38,46c0-0.6,0.4-1,1-1h4
			c0.6,0,1,0.4,1,1s-0.4,1-1,1h-4C38.4,47,38,46.6,38,46z M38,42c0-0.6,0.4-1,1-1h4c0.6,0,1,0.4,1,1s-0.4,1-1,1h-4
			C38.4,43,38,42.6,38,42z M49,54h-6c-0.6,0-1-0.4-1-1s0.4-1,1-1h6c0.6,0,1,0.4,1,1S49.6,54,49,54z M51,43h-4c-0.6,0-1-0.4-1-1
			s0.4-1,1-1h4c0.6,0,1,0.4,1,1S51.6,43,51,43z M51,39H39c-0.6,0-1-0.4-1-1s0.4-1,1-1h12c0.6,0,1,0.4,1,1S51.6,39,51,39z M38,34
			c0-0.6,0.4-1,1-1h9c0.6,0,1,0.4,1,1s-0.4,1-1,1h-9C38.4,35,38,34.6,38,34z M51,31H39c-0.6,0-1-0.4-1-1s0.4-1,1-1h12
			c0.6,0,1,0.4,1,1S51.6,31,51,31z M53,27H39c-0.6,0-1-0.4-1-1s0.4-1,1-1h14c0.6,0,1,0.4,1,1S53.6,27,53,27z M26.9,14L26.9,14
			c0.1,0.5,0.1,1,0.1,1.5c0,0.5,0,0.9-0.1,1.4c-0.2,1.4-0.6,2.8-1.2,4.1v0c0,0,0,0,0,0.1c-0.5,1-1.1,1.9-1.8,2.7L34,21.2V19
			c0-0.7,0.2-1.3,0.5-1.9L26.2,11C26.5,12,26.8,13,26.9,14z M26.2,11c0.4,1,0.6,1.9,0.7,3v0c0.1,0.5,0.1,1,0.1,1.5
			c0,0.5,0,0.9-0.1,1.4c-0.2,1.4-0.6,2.8-1.2,4.1v0c0,0,0,0,0,0.1c-0.5,1-1.1,1.9-1.8,2.7L34,21.2V19c0-0.7,0.2-1.3,0.5-1.9L26.2,11
			z M26.2,11c0.4,1,0.6,1.9,0.7,3v0c0.1,0.5,0.1,1,0.1,1.5c0,0.5,0,0.9-0.1,1.4c-0.2,1.4-0.6,2.8-1.2,4.1v0c0,0,0,0,0,0.1
			c-0.5,1-1.1,1.9-1.8,2.7L34,21.2V19c0-0.7,0.2-1.3,0.5-1.9L26.2,11z M26.2,11c0.4,1,0.6,1.9,0.7,3v0c0.1,0.5,0.1,1,0.1,1.5
			c0,0.5,0,0.9-0.1,1.4c-0.2,1.4-0.6,2.8-1.2,4.1v0c0,0,0,0,0,0.1c-0.5,1-1.1,1.9-1.8,2.7L34,21.2V19c0-0.7,0.2-1.3,0.5-1.9L26.2,11
			z M26.2,11c0.4,1,0.6,1.9,0.7,3v0c0.1,0.5,0.1,1,0.1,1.5c0,0.5,0,0.9-0.1,1.4c-0.2,1.4-0.6,2.8-1.2,4.1v0c0,0,0,0,0,0.1
			c-0.5,1-1.1,1.9-1.8,2.7L34,21.2V19c0-0.7,0.2-1.3,0.5-1.9L26.2,11z M26.2,11c0.4,1,0.6,1.9,0.7,3v0c0.1,0.5,0.1,1,0.1,1.5
			c0,0.5,0,0.9-0.1,1.4c-0.2,1.4-0.6,2.8-1.2,4.1v0c0,0,0,0,0,0.1c-0.5,1-1.1,1.9-1.8,2.7L34,21.2V19c0-0.7,0.2-1.3,0.5-1.9L26.2,11
			z M26.2,11c0.4,1,0.6,1.9,0.7,3v0c0.1,0.5,0.1,1,0.1,1.5c0,0.5,0,0.9-0.1,1.4c-0.2,1.4-0.6,2.8-1.2,4.1v0c0,0,0,0,0,0.1
			c-0.5,1-1.1,1.9-1.8,2.7L34,21.2V19c0-0.7,0.2-1.3,0.5-1.9L26.2,11z M26.2,11c0.4,1,0.6,1.9,0.7,3v0c0.1,0.5,0.1,1,0.1,1.5
			c0,0.5,0,0.9-0.1,1.4c-0.2,1.4-0.6,2.8-1.2,4.1v0c0,0,0,0,0,0.1c-0.5,1-1.1,1.9-1.8,2.7L34,21.2V19c0-0.7,0.2-1.3,0.5-1.9L26.2,11
			z M25,14.9c-1.1,0-2.1-0.4-3-1.1c-1,0.7-2.2,1.1-3.5,1.1h0c-1.3,0-2.5-0.4-3.5-1.1c-1.1,0.8-2.5,1.2-3.9,1.1h-0.1
			c-1.4,0.1-2.8-0.3-3.9-1.1c-0.9,0.7-1.9,1-3,1.1c0,0.2,0,0.4,0,0.6c0,0.5,0,1,0.1,1.5c0.1,1,0.4,1.9,0.8,2.8C5.9,19.5,6,19,6,18.9
			v0c0-0.3,0.1-0.5,0.3-0.7S6.7,18,7,18c0.6,0,1,0.5,1,1c0.1,0.3,0.7,1,3,1c2.2,0,2.9-0.7,3-1v0c0-0.5,0.5-1,1-1c0.6,0,1,0.5,1,1
			c0,0.3,0.7,1,3,1c2.2,0,2.9-0.7,3-1v0c0-0.5,0.5-1,1-1c0.6,0,1,0.5,1,1c0.1,0.2,0.2,0.3,0.3,0.4c0.4-0.9,0.6-1.8,0.7-2.7
			c0-0.4,0.1-0.8,0.1-1.1C25,15.3,25,15.1,25,14.9z M22.6,8.9c0,0-0.1-0.1-0.1-0.1c-0.1-0.2-0.3-0.3-0.4-0.4c-2-2.1-4.7-3.3-7.6-3.3
			c-4.8,0-9,3.3-10.2,7.9C5.5,12.7,6,12.2,6,11.9v0c0-0.3,0.1-0.5,0.3-0.7C6.5,11.1,6.7,11,7,11c0.6,0,1,0.5,1,1
			c0.1,0.3,0.7,1,2.9,1c2.3,0,2.9-0.7,3-1.1v0c0-0.5,0.5-1,1-1c0.6,0,1,0.5,1,1c0,0.3,0.6,0.9,2.5,1c1.9-0.1,2.5-0.7,2.5-1v0
			c0-0.3,0.1-0.5,0.3-0.7c0.2-0.2,0.4-0.3,0.7-0.3c0.6,0,1,0.5,1,1c0,0.2,0.5,0.7,1.7,0.9C24.3,11.4,23.6,10,22.6,8.9z M22.9,20.9
			c-1.1,0.8-2.5,1.2-3.9,1.1c-1.4,0.1-2.8-0.3-4-1.1c-1.2,0.8-2.6,1.2-4,1.1c-1.4,0.1-2.8-0.3-4-1.1c-0.3,0.3-0.7,0.5-1.1,0.6
			c2.9,4.2,8.4,5.6,13.1,3.5c1.8-0.9,3.3-2.2,4.3-3.8C23.2,21.1,23,21,22.9,20.9L22.9,20.9z M25,14.9c-1.1,0-2.1-0.4-3-1.1
			c-1,0.7-2.2,1.1-3.5,1.1h0c-1.3,0-2.5-0.4-3.5-1.1c-1.1,0.8-2.5,1.2-3.9,1.1h-0.1c-1.4,0.1-2.8-0.3-3.9-1.1c-0.9,0.7-1.9,1-3,1.1
			c0,0.2,0,0.4,0,0.6c0,0.5,0,1,0.1,1.5c0.1,1,0.4,1.9,0.8,2.8C5.9,19.5,6,19,6,18.9v0c0-0.3,0.1-0.5,0.3-0.7S6.7,18,7,18
			c0.6,0,1,0.5,1,1c0.1,0.3,0.7,1,3,1c2.2,0,2.9-0.7,3-1v0c0-0.5,0.5-1,1-1c0.6,0,1,0.5,1,1c0,0.3,0.7,1,3,1c2.2,0,2.9-0.7,3-1v0
			c0-0.5,0.5-1,1-1c0.6,0,1,0.5,1,1c0.1,0.2,0.2,0.3,0.3,0.4c0.4-0.9,0.6-1.8,0.7-2.7c0-0.4,0.1-0.8,0.1-1.1
			C25,15.3,25,15.1,25,14.9z M22.6,8.9c0,0-0.1-0.1-0.1-0.1c-0.1-0.2-0.3-0.3-0.4-0.4c-2-2.1-4.7-3.3-7.6-3.3c-4.8,0-9,3.3-10.2,7.9
			C5.5,12.7,6,12.2,6,11.9v0c0-0.3,0.1-0.5,0.3-0.7C6.5,11.1,6.7,11,7,11c0.6,0,1,0.5,1,1c0.1,0.3,0.7,1,2.9,1c2.3,0,2.9-0.7,3-1.1
			v0c0-0.5,0.5-1,1-1c0.6,0,1,0.5,1,1c0,0.3,0.6,0.9,2.5,1c1.9-0.1,2.5-0.7,2.5-1v0c0-0.3,0.1-0.5,0.3-0.7c0.2-0.2,0.4-0.3,0.7-0.3
			c0.6,0,1,0.5,1,1c0,0.2,0.5,0.7,1.7,0.9C24.3,11.4,23.6,10,22.6,8.9z M22.9,20.9c-1.1,0.8-2.5,1.2-3.9,1.1c-1.4,0.1-2.8-0.3-4-1.1
			c-1.2,0.8-2.6,1.2-4,1.1c-1.4,0.1-2.8-0.3-4-1.1c-0.3,0.3-0.7,0.5-1.1,0.6c2.9,4.2,8.4,5.6,13.1,3.5c1.8-0.9,3.3-2.2,4.3-3.8
			C23.2,21.1,23,21,22.9,20.9L22.9,20.9z M22.6,8.9c0,0-0.1-0.1-0.1-0.1c-0.1-0.2-0.3-0.3-0.4-0.4c-2-2.1-4.7-3.3-7.6-3.3
			c-4.8,0-9,3.3-10.2,7.9C5.5,12.7,6,12.2,6,11.9v0c0-0.3,0.1-0.5,0.3-0.7C6.5,11.1,6.7,11,7,11c0.6,0,1,0.5,1,1
			c0.1,0.3,0.7,1,2.9,1c2.3,0,2.9-0.7,3-1.1v0c0-0.5,0.5-1,1-1c0.6,0,1,0.5,1,1c0,0.3,0.6,0.9,2.5,1c1.9-0.1,2.5-0.7,2.5-1v0
			c0-0.3,0.1-0.5,0.3-0.7c0.2-0.2,0.4-0.3,0.7-0.3c0.6,0,1,0.5,1,1c0,0.2,0.5,0.7,1.7,0.9C24.3,11.4,23.6,10,22.6,8.9z M25,14.9
			c-1.1,0-2.1-0.4-3-1.1c-1,0.7-2.2,1.1-3.5,1.1h0c-1.3,0-2.5-0.4-3.5-1.1c-1.1,0.8-2.5,1.2-3.9,1.1h-0.1c-1.4,0.1-2.8-0.3-3.9-1.1
			c-0.9,0.7-1.9,1-3,1.1c0,0.2,0,0.4,0,0.6c0,0.5,0,1,0.1,1.5c0.1,1,0.4,1.9,0.8,2.8C5.9,19.5,6,19,6,18.9v0c0-0.3,0.1-0.5,0.3-0.7
			S6.7,18,7,18c0.6,0,1,0.5,1,1c0.1,0.3,0.7,1,3,1c2.2,0,2.9-0.7,3-1v0c0-0.5,0.5-1,1-1c0.6,0,1,0.5,1,1c0,0.3,0.7,1,3,1
			c2.2,0,2.9-0.7,3-1v0c0-0.5,0.5-1,1-1c0.6,0,1,0.5,1,1c0.1,0.2,0.2,0.3,0.3,0.4c0.4-0.9,0.6-1.8,0.7-2.7c0-0.4,0.1-0.8,0.1-1.1
			C25,15.3,25,15.1,25,14.9z M22.9,20.9c-1.1,0.8-2.5,1.2-3.9,1.1c-1.4,0.1-2.8-0.3-4-1.1c-1.2,0.8-2.6,1.2-4,1.1
			c-1.4,0.1-2.8-0.3-4-1.1c-0.3,0.3-0.7,0.5-1.1,0.6c2.9,4.2,8.4,5.6,13.1,3.5c1.8-0.9,3.3-2.2,4.3-3.8C23.2,21.1,23,21,22.9,20.9z
			 M22.6,8.9c0,0-0.1-0.1-0.1-0.1c-0.1-0.2-0.3-0.3-0.4-0.4c-2-2.1-4.7-3.3-7.6-3.3c-4.8,0-9,3.3-10.2,7.9C5.5,12.7,6,12.2,6,11.9v0
			c0-0.3,0.1-0.5,0.3-0.7C6.5,11.1,6.7,11,7,11c0.6,0,1,0.5,1,1c0.1,0.3,0.7,1,2.9,1c2.3,0,2.9-0.7,3-1.1v0c0-0.5,0.5-1,1-1
			c0.6,0,1,0.5,1,1c0,0.3,0.6,0.9,2.5,1c1.9-0.1,2.5-0.7,2.5-1v0c0-0.3,0.1-0.5,0.3-0.7c0.2-0.2,0.4-0.3,0.7-0.3c0.6,0,1,0.5,1,1
			c0,0.2,0.5,0.7,1.7,0.9C24.3,11.4,23.6,10,22.6,8.9z M25,14.9c-1.1,0-2.1-0.4-3-1.1c-1,0.7-2.2,1.1-3.5,1.1h0
			c-1.3,0-2.5-0.4-3.5-1.1c-1.1,0.8-2.5,1.2-3.9,1.1h-0.1c-1.4,0.1-2.8-0.3-3.9-1.1c-0.9,0.7-1.9,1-3,1.1c0,0.2,0,0.4,0,0.6
			c0,0.5,0,1,0.1,1.5c0.1,1,0.4,1.9,0.8,2.8C5.9,19.5,6,19,6,18.9v0c0-0.3,0.1-0.5,0.3-0.7S6.7,18,7,18c0.6,0,1,0.5,1,1
			c0.1,0.3,0.7,1,3,1c2.2,0,2.9-0.7,3-1v0c0-0.5,0.5-1,1-1c0.6,0,1,0.5,1,1c0,0.3,0.7,1,3,1c2.2,0,2.9-0.7,3-1v0c0-0.5,0.5-1,1-1
			c0.6,0,1,0.5,1,1c0.1,0.2,0.2,0.3,0.3,0.4c0.4-0.9,0.6-1.8,0.7-2.7c0-0.4,0.1-0.8,0.1-1.1C25,15.3,25,15.1,25,14.9z M22.9,20.9
			c-1.1,0.8-2.5,1.2-3.9,1.1c-1.4,0.1-2.8-0.3-4-1.1c-1.2,0.8-2.6,1.2-4,1.1c-1.4,0.1-2.8-0.3-4-1.1c-0.3,0.3-0.7,0.5-1.1,0.6
			c2.9,4.2,8.4,5.6,13.1,3.5c1.8-0.9,3.3-2.2,4.3-3.8C23.2,21.1,23,21,22.9,20.9z M22.6,8.9c0,0-0.1-0.1-0.1-0.1
			c-0.1-0.2-0.3-0.3-0.4-0.4c-2-2.1-4.7-3.3-7.6-3.3c-4.8,0-9,3.3-10.2,7.9C5.5,12.7,6,12.2,6,11.9v0c0-0.3,0.1-0.5,0.3-0.7
			C6.5,11.1,6.7,11,7,11c0.6,0,1,0.5,1,1c0.1,0.3,0.7,1,2.9,1c2.3,0,2.9-0.7,3-1.1v0c0-0.5,0.5-1,1-1c0.6,0,1,0.5,1,1
			c0,0.3,0.6,0.9,2.5,1c1.9-0.1,2.5-0.7,2.5-1v0c0-0.3,0.1-0.5,0.3-0.7c0.2-0.2,0.4-0.3,0.7-0.3c0.6,0,1,0.5,1,1
			c0,0.2,0.5,0.7,1.7,0.9C24.3,11.4,23.6,10,22.6,8.9z M25,14.9c-1.1,0-2.1-0.4-3-1.1c-1,0.7-2.2,1.1-3.5,1.1h0
			c-1.3,0-2.5-0.4-3.5-1.1c-1.1,0.8-2.5,1.2-3.9,1.1h-0.1c-1.4,0.1-2.8-0.3-3.9-1.1c-0.9,0.7-1.9,1-3,1.1c0,0.2,0,0.4,0,0.6
			c0,0.5,0,1,0.1,1.5c0.1,1,0.4,1.9,0.8,2.8C5.9,19.5,6,19,6,18.9v0c0-0.3,0.1-0.5,0.3-0.7S6.7,18,7,18c0.6,0,1,0.5,1,1
			c0.1,0.3,0.7,1,3,1c2.2,0,2.9-0.7,3-1v0c0-0.5,0.5-1,1-1c0.6,0,1,0.5,1,1c0,0.3,0.7,1,3,1c2.2,0,2.9-0.7,3-1v0c0-0.5,0.5-1,1-1
			c0.6,0,1,0.5,1,1c0.1,0.2,0.2,0.3,0.3,0.4c0.4-0.9,0.6-1.8,0.7-2.7c0-0.4,0.1-0.8,0.1-1.1C25,15.3,25,15.1,25,14.9z M22.9,20.9
			c-1.1,0.8-2.5,1.2-3.9,1.1c-1.4,0.1-2.8-0.3-4-1.1c-1.2,0.8-2.6,1.2-4,1.1c-1.4,0.1-2.8-0.3-4-1.1c-0.3,0.3-0.7,0.5-1.1,0.6
			c2.9,4.2,8.4,5.6,13.1,3.5c1.8-0.9,3.3-2.2,4.3-3.8C23.2,21.1,23,21,22.9,20.9z M22.6,8.9c0,0-0.1-0.1-0.1-0.1
			c-0.1-0.2-0.3-0.3-0.4-0.4c-2-2.1-4.7-3.3-7.6-3.3c-4.8,0-9,3.3-10.2,7.9C5.5,12.7,6,12.2,6,11.9v0c0-0.3,0.1-0.5,0.3-0.7
			C6.5,11.1,6.7,11,7,11c0.6,0,1,0.5,1,1c0.1,0.3,0.7,1,2.9,1c2.3,0,2.9-0.7,3-1.1v0c0-0.5,0.5-1,1-1c0.6,0,1,0.5,1,1
			c0,0.3,0.6,0.9,2.5,1c1.9-0.1,2.5-0.7,2.5-1v0c0-0.3,0.1-0.5,0.3-0.7c0.2-0.2,0.4-0.3,0.7-0.3c0.6,0,1,0.5,1,1
			c0,0.2,0.5,0.7,1.7,0.9C24.3,11.4,23.6,10,22.6,8.9z M25,14.9c-1.1,0-2.1-0.4-3-1.1c-1,0.7-2.2,1.1-3.5,1.1h0
			c-1.3,0-2.5-0.4-3.5-1.1c-1.1,0.8-2.5,1.2-3.9,1.1h-0.1c-1.4,0.1-2.8-0.3-3.9-1.1c-0.9,0.7-1.9,1-3,1.1c0,0.2,0,0.4,0,0.6
			c0,0.5,0,1,0.1,1.5c0.1,1,0.4,1.9,0.8,2.8C5.9,19.5,6,19,6,18.9v0c0-0.3,0.1-0.5,0.3-0.7S6.7,18,7,18c0.6,0,1,0.5,1,1
			c0.1,0.3,0.7,1,3,1c2.2,0,2.9-0.7,3-1v0c0-0.5,0.5-1,1-1c0.6,0,1,0.5,1,1c0,0.3,0.7,1,3,1c2.2,0,2.9-0.7,3-1v0c0-0.5,0.5-1,1-1
			c0.6,0,1,0.5,1,1c0.1,0.2,0.2,0.3,0.3,0.4c0.4-0.9,0.6-1.8,0.7-2.7c0-0.4,0.1-0.8,0.1-1.1C25,15.3,25,15.1,25,14.9z M22.9,20.9
			c-1.1,0.8-2.5,1.2-3.9,1.1c-1.4,0.1-2.8-0.3-4-1.1c-1.2,0.8-2.6,1.2-4,1.1c-1.4,0.1-2.8-0.3-4-1.1c-0.3,0.3-0.7,0.5-1.1,0.6
			c2.9,4.2,8.4,5.6,13.1,3.5c1.8-0.9,3.3-2.2,4.3-3.8C23.2,21.1,23,21,22.9,20.9z M22.6,8.9c0,0-0.1-0.1-0.1-0.1
			c-0.1-0.2-0.3-0.3-0.4-0.4c-2-2.1-4.7-3.3-7.6-3.3c-4.8,0-9,3.3-10.2,7.9C5.5,12.7,6,12.2,6,11.9v0c0-0.3,0.1-0.5,0.3-0.7
			C6.5,11.1,6.7,11,7,11c0.6,0,1,0.5,1,1c0.1,0.3,0.7,1,2.9,1c2.3,0,2.9-0.7,3-1.1v0c0-0.5,0.5-1,1-1c0.6,0,1,0.5,1,1
			c0,0.3,0.6,0.9,2.5,1c1.9-0.1,2.5-0.7,2.5-1v0c0-0.3,0.1-0.5,0.3-0.7c0.2-0.2,0.4-0.3,0.7-0.3c0.6,0,1,0.5,1,1
			c0,0.2,0.5,0.7,1.7,0.9C24.3,11.4,23.6,10,22.6,8.9z M25,14.9c-1.1,0-2.1-0.4-3-1.1c-1,0.7-2.2,1.1-3.5,1.1h0
			c-1.3,0-2.5-0.4-3.5-1.1c-1.1,0.8-2.5,1.2-3.9,1.1h-0.1c-1.4,0.1-2.8-0.3-3.9-1.1c-0.9,0.7-1.9,1-3,1.1c0,0.2,0,0.4,0,0.6
			c0,0.5,0,1,0.1,1.5c0.1,1,0.4,1.9,0.8,2.8C5.9,19.5,6,19,6,18.9v0c0-0.3,0.1-0.5,0.3-0.7S6.7,18,7,18c0.6,0,1,0.5,1,1
			c0.1,0.3,0.7,1,3,1c2.2,0,2.9-0.7,3-1v0c0-0.5,0.5-1,1-1c0.6,0,1,0.5,1,1c0,0.3,0.7,1,3,1c2.2,0,2.9-0.7,3-1v0c0-0.5,0.5-1,1-1
			c0.6,0,1,0.5,1,1c0.1,0.2,0.2,0.3,0.3,0.4c0.4-0.9,0.6-1.8,0.7-2.7c0-0.4,0.1-0.8,0.1-1.1C25,15.3,25,15.1,25,14.9z M22.9,20.9
			c-1.1,0.8-2.5,1.2-3.9,1.1c-1.4,0.1-2.8-0.3-4-1.1c-1.2,0.8-2.6,1.2-4,1.1c-1.4,0.1-2.8-0.3-4-1.1c-0.3,0.3-0.7,0.5-1.1,0.6
			c2.9,4.2,8.4,5.6,13.1,3.5c1.8-0.9,3.3-2.2,4.3-3.8C23.2,21.1,23,21,22.9,20.9z M39,0H1C0.4,0,0,0.4,0,1v54c0,0.6,0.4,1,1,1h33.6
			c-0.4-0.6-0.6-1.3-0.6-2V23.3l-14.2,3.5c-1.4,0.7-2.9,1-4.5,1.1h0c-0.1,0-0.2,0-0.3,0c0,0-0.1,0-0.1,0c-0.1,0-0.2,0-0.4,0
			c-2.9,0-5.8-1-8-2.9c-1.2-1-2.2-2.2-3-3.6c0,0,0-0.1,0-0.1c-0.7-1.3-1.1-2.7-1.4-4.1C2,16.7,2,16.1,2,15.5c0-4.6,2.6-8.9,6.6-11
			s9-1.9,12.9,0.7c0,0,0.1,0,0.1,0l14.3,10.5c0.6-0.4,1.4-0.6,2.2-0.6h2V1C40,0.4,39.6,0,39,0z M12,50c-1.4,0.1-2.8-0.3-4-1.1
			c-1.2,0.8-2.6,1.2-4,1.1c-0.6,0-1-0.4-1-1s0.4-1,1-1c2.2,0,2.9-0.7,3-1v0c0-0.5,0.5-1,1-1c0.6,0,1,0.5,1,1c0.1,0.3,0.7,1,3,1
			c0.6,0,1,0.4,1,1S12.6,50,12,50z M24,50c-1.4,0.1-2.8-0.3-4-1.1c-1.2,0.8-2.6,1.2-4,1.1c-0.6,0-1-0.4-1-1s0.4-1,1-1
			c2.2,0,2.9-0.7,3-1v0c0-0.5,0.5-1,1-1c0.6,0,1,0.5,1,1c0,0.3,0.7,1,3,1c0.6,0,1,0.4,1,1S24.6,50,24,50z M32,42c0,0.6-0.4,1-1,1
			c-1.4,0.1-2.8-0.3-4-1.1c-1.2,0.8-2.6,1.2-4,1.1c-0.6,0-1-0.4-1-1s0.4-1,1-1c2.2,0,2.9-0.7,3-1v0c0-0.5,0.5-1,1-1c0.6,0,1,0.5,1,1
			c0,0.3,0.7,1,3,1C31.6,41,32,41.4,32,42z M4,34c2.2,0,2.9-0.7,3-1v0c0-0.5,0.5-1,1-1c0.6,0,1,0.5,1,1c0.1,0.3,0.7,1,3,1
			c2.2,0,2.9-0.7,3-1v0c0-0.5,0.5-1,1-1c0.6,0,1,0.5,1,1c0,0.3,0.7,1,3,1c2.2,0,2.9-0.7,3-1v0c0-0.5,0.5-1,1-1c0.6,0,1,0.5,1,1
			c0,0.3,0.7,1,3,1c0.6,0,1,0.4,1,1s-0.4,1-1,1c-1.4,0.1-2.8-0.3-4-1.1c-1.2,0.8-2.6,1.2-4,1.1c-1.4,0.1-2.8-0.3-4-1.1
			c-1.2,0.8-2.6,1.2-4,1.1c-1.4,0.1-2.8-0.3-4-1.1c-1.2,0.8-2.6,1.2-4,1.1c-0.6,0-1-0.4-1-1S3.4,34,4,34z M4,41c2.1,0,2.7-0.7,2.8-1
			v0c0-0.3,0.1-0.5,0.3-0.7C7.2,39.1,7.5,39,7.8,39c0.6,0,1,0.5,1,1c0,0.3,0.7,1,2.8,1c2.1,0,2.7-0.7,2.8-1v0c0-0.3,0.1-0.5,0.3-0.7
			c0.2-0.2,0.4-0.3,0.7-0.3c0.6,0,1,0.5,1,1c0,0.3,0.7,1,2.8,1c0.6,0,1,0.4,1,1s-0.4,1-1,1c-1.3,0.1-2.7-0.3-3.8-1.1
			c-1.1,0.8-2.4,1.2-3.8,1.1c-1.3,0.1-2.7-0.3-3.8-1.1C6.7,42.7,5.3,43.1,4,43c-0.6,0-1-0.4-1-1S3.4,41,4,41z M19,22
			c-1.4,0.1-2.8-0.3-4-1.1c-1.2,0.8-2.6,1.2-4,1.1c-1.4,0.1-2.8-0.3-4-1.1c-0.3,0.3-0.7,0.5-1.1,0.6c2.9,4.2,8.4,5.6,13.1,3.5
			c1.8-0.9,3.3-2.2,4.3-3.8c-0.1-0.1-0.3-0.2-0.4-0.3C21.8,21.7,20.4,22.1,19,22z M23.9,19c0.1,0.2,0.2,0.3,0.3,0.4
			c0.4-0.9,0.6-1.8,0.7-2.7c0-0.4,0.1-0.8,0.1-1.1c0-0.2,0-0.4,0-0.6c-1.1,0-2.1-0.4-3-1.1c-1,0.7-2.2,1.1-3.5,1.1h0
			c-1.3,0-2.5-0.4-3.5-1.1c-1.1,0.8-2.5,1.2-3.9,1.1h-0.1c-1.4,0.1-2.8-0.3-3.9-1.1c-0.9,0.7-1.9,1-3,1.1c0,0.2,0,0.4,0,0.6
			c0,0.5,0,1,0.1,1.5c0.1,1,0.4,1.9,0.8,2.8C5.9,19.5,6,19,6,18.9v0c0-0.3,0.1-0.5,0.3-0.7S6.7,18,7,18c0.6,0,1,0.5,1,1
			c0.1,0.3,0.7,1,3,1c2.2,0,2.9-0.7,3-1v0c0-0.5,0.5-1,1-1c0.6,0,1,0.5,1,1c0,0.3,0.7,1,3,1c2.2,0,2.9-0.7,3-1v0c0-0.5,0.5-1,1-1
			C23.5,18,23.9,18.4,23.9,19z M6,11.9c0-0.3,0.1-0.5,0.3-0.7C6.5,11.1,6.7,11,7,11c0.6,0,1,0.5,1,1c0.1,0.3,0.7,1,2.9,1
			c2.3,0,2.9-0.7,3-1.1v0c0-0.5,0.5-1,1-1c0.6,0,1,0.5,1,1c0,0.3,0.6,0.9,2.5,1c1.9-0.1,2.5-0.7,2.5-1v0c0-0.3,0.1-0.5,0.3-0.7
			c0.2-0.2,0.4-0.3,0.7-0.3c0.6,0,1,0.5,1,1c0,0.2,0.5,0.7,1.7,0.9c-0.4-1.5-1.1-2.9-2-4c0,0-0.1-0.1-0.1-0.1
			c-0.1-0.2-0.3-0.3-0.4-0.4c-2-2.1-4.7-3.3-7.6-3.3c-4.8,0-9,3.3-10.2,7.9C5.5,12.7,6,12.2,6,11.9L6,11.9z M22.9,20.9
			c-1.1,0.8-2.5,1.2-3.9,1.1c-1.4,0.1-2.8-0.3-4-1.1c-1.2,0.8-2.6,1.2-4,1.1c-1.4,0.1-2.8-0.3-4-1.1c-0.3,0.3-0.7,0.5-1.1,0.6
			c2.9,4.2,8.4,5.6,13.1,3.5c1.8-0.9,3.3-2.2,4.3-3.8C23.2,21.1,23,21,22.9,20.9z M25,14.9c-1.1,0-2.1-0.4-3-1.1
			c-1,0.7-2.2,1.1-3.5,1.1h0c-1.3,0-2.5-0.4-3.5-1.1c-1.1,0.8-2.5,1.2-3.9,1.1h-0.1c-1.4,0.1-2.8-0.3-3.9-1.1c-0.9,0.7-1.9,1-3,1.1
			c0,0.2,0,0.4,0,0.6c0,0.5,0,1,0.1,1.5c0.1,1,0.4,1.9,0.8,2.8C5.9,19.5,6,19,6,18.9v0c0-0.3,0.1-0.5,0.3-0.7S6.7,18,7,18
			c0.6,0,1,0.5,1,1c0.1,0.3,0.7,1,3,1c2.2,0,2.9-0.7,3-1v0c0-0.5,0.5-1,1-1c0.6,0,1,0.5,1,1c0,0.3,0.7,1,3,1c2.2,0,2.9-0.7,3-1v0
			c0-0.5,0.5-1,1-1c0.6,0,1,0.5,1,1c0.1,0.2,0.2,0.3,0.3,0.4c0.4-0.9,0.6-1.8,0.7-2.7c0-0.4,0.1-0.8,0.1-1.1
			C25,15.3,25,15.1,25,14.9z M22.6,8.9c0,0-0.1-0.1-0.1-0.1c-0.1-0.2-0.3-0.3-0.4-0.4c-2-2.1-4.7-3.3-7.6-3.3c-4.8,0-9,3.3-10.2,7.9
			C5.5,12.7,6,12.2,6,11.9v0c0-0.3,0.1-0.5,0.3-0.7C6.5,11.1,6.7,11,7,11c0.6,0,1,0.5,1,1c0.1,0.3,0.7,1,2.9,1c2.3,0,2.9-0.7,3-1.1
			v0c0-0.5,0.5-1,1-1c0.6,0,1,0.5,1,1c0,0.3,0.6,0.9,2.5,1c1.9-0.1,2.5-0.7,2.5-1v0c0-0.3,0.1-0.5,0.3-0.7c0.2-0.2,0.4-0.3,0.7-0.3
			c0.6,0,1,0.5,1,1c0,0.2,0.5,0.7,1.7,0.9C24.3,11.4,23.6,10,22.6,8.9z M22.9,20.9c-1.1,0.8-2.5,1.2-3.9,1.1c-1.4,0.1-2.8-0.3-4-1.1
			c-1.2,0.8-2.6,1.2-4,1.1c-1.4,0.1-2.8-0.3-4-1.1c-0.3,0.3-0.7,0.5-1.1,0.6c2.9,4.2,8.4,5.6,13.1,3.5c1.8-0.9,3.3-2.2,4.3-3.8
			C23.2,21.1,23,21,22.9,20.9L22.9,20.9z M25,14.9c-1.1,0-2.1-0.4-3-1.1c-1,0.7-2.2,1.1-3.5,1.1h0c-1.3,0-2.5-0.4-3.5-1.1
			c-1.1,0.8-2.5,1.2-3.9,1.1h-0.1c-1.4,0.1-2.8-0.3-3.9-1.1c-0.9,0.7-1.9,1-3,1.1c0,0.2,0,0.4,0,0.6c0,0.5,0,1,0.1,1.5
			c0.1,1,0.4,1.9,0.8,2.8C5.9,19.5,6,19,6,18.9v0c0-0.3,0.1-0.5,0.3-0.7S6.7,18,7,18c0.6,0,1,0.5,1,1c0.1,0.3,0.7,1,3,1
			c2.2,0,2.9-0.7,3-1v0c0-0.5,0.5-1,1-1c0.6,0,1,0.5,1,1c0,0.3,0.7,1,3,1c2.2,0,2.9-0.7,3-1v0c0-0.5,0.5-1,1-1c0.6,0,1,0.5,1,1
			c0.1,0.2,0.2,0.3,0.3,0.4c0.4-0.9,0.6-1.8,0.7-2.7c0-0.4,0.1-0.8,0.1-1.1C25,15.3,25,15.1,25,14.9z M22.6,8.9c0,0-0.1-0.1-0.1-0.1
			c-0.1-0.2-0.3-0.3-0.4-0.4c-2-2.1-4.7-3.3-7.6-3.3c-4.8,0-9,3.3-10.2,7.9C5.5,12.7,6,12.2,6,11.9v0c0-0.3,0.1-0.5,0.3-0.7
			C6.5,11.1,6.7,11,7,11c0.6,0,1,0.5,1,1c0.1,0.3,0.7,1,2.9,1c2.3,0,2.9-0.7,3-1.1v0c0-0.5,0.5-1,1-1c0.6,0,1,0.5,1,1
			c0,0.3,0.6,0.9,2.5,1c1.9-0.1,2.5-0.7,2.5-1v0c0-0.3,0.1-0.5,0.3-0.7c0.2-0.2,0.4-0.3,0.7-0.3c0.6,0,1,0.5,1,1
			c0,0.2,0.5,0.7,1.7,0.9C24.3,11.4,23.6,10,22.6,8.9z M22.9,20.9c-1.1,0.8-2.5,1.2-3.9,1.1c-1.4,0.1-2.8-0.3-4-1.1
			c-1.2,0.8-2.6,1.2-4,1.1c-1.4,0.1-2.8-0.3-4-1.1c-0.3,0.3-0.7,0.5-1.1,0.6c2.9,4.2,8.4,5.6,13.1,3.5c1.8-0.9,3.3-2.2,4.3-3.8
			C23.2,21.1,23,21,22.9,20.9L22.9,20.9z M25,14.9c-1.1,0-2.1-0.4-3-1.1c-1,0.7-2.2,1.1-3.5,1.1h0c-1.3,0-2.5-0.4-3.5-1.1
			c-1.1,0.8-2.5,1.2-3.9,1.1h-0.1c-1.4,0.1-2.8-0.3-3.9-1.1c-0.9,0.7-1.9,1-3,1.1c0,0.2,0,0.4,0,0.6c0,0.5,0,1,0.1,1.5
			c0.1,1,0.4,1.9,0.8,2.8C5.9,19.5,6,19,6,18.9v0c0-0.3,0.1-0.5,0.3-0.7S6.7,18,7,18c0.6,0,1,0.5,1,1c0.1,0.3,0.7,1,3,1
			c2.2,0,2.9-0.7,3-1v0c0-0.5,0.5-1,1-1c0.6,0,1,0.5,1,1c0,0.3,0.7,1,3,1c2.2,0,2.9-0.7,3-1v0c0-0.5,0.5-1,1-1c0.6,0,1,0.5,1,1
			c0.1,0.2,0.2,0.3,0.3,0.4c0.4-0.9,0.6-1.8,0.7-2.7c0-0.4,0.1-0.8,0.1-1.1C25,15.3,25,15.1,25,14.9z M22.6,8.9c0,0-0.1-0.1-0.1-0.1
			c-0.1-0.2-0.3-0.3-0.4-0.4c-2-2.1-4.7-3.3-7.6-3.3c-4.8,0-9,3.3-10.2,7.9C5.5,12.7,6,12.2,6,11.9v0c0-0.3,0.1-0.5,0.3-0.7
			C6.5,11.1,6.7,11,7,11c0.6,0,1,0.5,1,1c0.1,0.3,0.7,1,2.9,1c2.3,0,2.9-0.7,3-1.1v0c0-0.5,0.5-1,1-1c0.6,0,1,0.5,1,1
			c0,0.3,0.6,0.9,2.5,1c1.9-0.1,2.5-0.7,2.5-1v0c0-0.3,0.1-0.5,0.3-0.7c0.2-0.2,0.4-0.3,0.7-0.3c0.6,0,1,0.5,1,1
			c0,0.2,0.5,0.7,1.7,0.9C24.3,11.4,23.6,10,22.6,8.9z M22.9,20.9c-1.1,0.8-2.5,1.2-3.9,1.1c-1.4,0.1-2.8-0.3-4-1.1
			c-1.2,0.8-2.6,1.2-4,1.1c-1.4,0.1-2.8-0.3-4-1.1c-0.3,0.3-0.7,0.5-1.1,0.6c2.9,4.2,8.4,5.6,13.1,3.5c1.8-0.9,3.3-2.2,4.3-3.8
			C23.2,21.1,23,21,22.9,20.9L22.9,20.9z M25,14.9c-1.1,0-2.1-0.4-3-1.1c-1,0.7-2.2,1.1-3.5,1.1h0c-1.3,0-2.5-0.4-3.5-1.1
			c-1.1,0.8-2.5,1.2-3.9,1.1h-0.1c-1.4,0.1-2.8-0.3-3.9-1.1c-0.9,0.7-1.9,1-3,1.1c0,0.2,0,0.4,0,0.6c0,0.5,0,1,0.1,1.5
			c0.1,1,0.4,1.9,0.8,2.8C5.9,19.5,6,19,6,18.9v0c0-0.3,0.1-0.5,0.3-0.7S6.7,18,7,18c0.6,0,1,0.5,1,1c0.1,0.3,0.7,1,3,1
			c2.2,0,2.9-0.7,3-1v0c0-0.5,0.5-1,1-1c0.6,0,1,0.5,1,1c0,0.3,0.7,1,3,1c2.2,0,2.9-0.7,3-1v0c0-0.5,0.5-1,1-1c0.6,0,1,0.5,1,1
			c0.1,0.2,0.2,0.3,0.3,0.4c0.4-0.9,0.6-1.8,0.7-2.7c0-0.4,0.1-0.8,0.1-1.1C25,15.3,25,15.1,25,14.9z M22.6,8.9c0,0-0.1-0.1-0.1-0.1
			c-0.1-0.2-0.3-0.3-0.4-0.4c-2-2.1-4.7-3.3-7.6-3.3c-4.8,0-9,3.3-10.2,7.9C5.5,12.7,6,12.2,6,11.9v0c0-0.3,0.1-0.5,0.3-0.7
			C6.5,11.1,6.7,11,7,11c0.6,0,1,0.5,1,1c0.1,0.3,0.7,1,2.9,1c2.3,0,2.9-0.7,3-1.1v0c0-0.5,0.5-1,1-1c0.6,0,1,0.5,1,1
			c0,0.3,0.6,0.9,2.5,1c1.9-0.1,2.5-0.7,2.5-1v0c0-0.3,0.1-0.5,0.3-0.7c0.2-0.2,0.4-0.3,0.7-0.3c0.6,0,1,0.5,1,1
			c0,0.2,0.5,0.7,1.7,0.9C24.3,11.4,23.6,10,22.6,8.9z M22.9,20.9c-1.1,0.8-2.5,1.2-3.9,1.1c-1.4,0.1-2.8-0.3-4-1.1
			c-1.2,0.8-2.6,1.2-4,1.1c-1.4,0.1-2.8-0.3-4-1.1c-0.3,0.3-0.7,0.5-1.1,0.6c2.9,4.2,8.4,5.6,13.1,3.5c1.8-0.9,3.3-2.2,4.3-3.8
			C23.2,21.1,23,21,22.9,20.9L22.9,20.9z M25,14.9c-1.1,0-2.1-0.4-3-1.1c-1,0.7-2.2,1.1-3.5,1.1h0c-1.3,0-2.5-0.4-3.5-1.1
			c-1.1,0.8-2.5,1.2-3.9,1.1h-0.1c-1.4,0.1-2.8-0.3-3.9-1.1c-0.9,0.7-1.9,1-3,1.1c0,0.2,0,0.4,0,0.6c0,0.5,0,1,0.1,1.5
			c0.1,1,0.4,1.9,0.8,2.8C5.9,19.5,6,19,6,18.9v0c0-0.3,0.1-0.5,0.3-0.7S6.7,18,7,18c0.6,0,1,0.5,1,1c0.1,0.3,0.7,1,3,1
			c2.2,0,2.9-0.7,3-1v0c0-0.5,0.5-1,1-1c0.6,0,1,0.5,1,1c0,0.3,0.7,1,3,1c2.2,0,2.9-0.7,3-1v0c0-0.5,0.5-1,1-1c0.6,0,1,0.5,1,1
			c0.1,0.2,0.2,0.3,0.3,0.4c0.4-0.9,0.6-1.8,0.7-2.7c0-0.4,0.1-0.8,0.1-1.1C25,15.3,25,15.1,25,14.9z M22.6,8.9c0,0-0.1-0.1-0.1-0.1
			c-0.1-0.2-0.3-0.3-0.4-0.4c-2-2.1-4.7-3.3-7.6-3.3c-4.8,0-9,3.3-10.2,7.9C5.5,12.7,6,12.2,6,11.9v0c0-0.3,0.1-0.5,0.3-0.7
			C6.5,11.1,6.7,11,7,11c0.6,0,1,0.5,1,1c0.1,0.3,0.7,1,2.9,1c2.3,0,2.9-0.7,3-1.1v0c0-0.5,0.5-1,1-1c0.6,0,1,0.5,1,1
			c0,0.3,0.6,0.9,2.5,1c1.9-0.1,2.5-0.7,2.5-1v0c0-0.3,0.1-0.5,0.3-0.7c0.2-0.2,0.4-0.3,0.7-0.3c0.6,0,1,0.5,1,1
			c0,0.2,0.5,0.7,1.7,0.9C24.3,11.4,23.6,10,22.6,8.9z M22.9,20.9c-1.1,0.8-2.5,1.2-3.9,1.1c-1.4,0.1-2.8-0.3-4-1.1
			c-1.2,0.8-2.6,1.2-4,1.1c-1.4,0.1-2.8-0.3-4-1.1c-0.3,0.3-0.7,0.5-1.1,0.6c2.9,4.2,8.4,5.6,13.1,3.5c1.8-0.9,3.3-2.2,4.3-3.8
			C23.2,21.1,23,21,22.9,20.9L22.9,20.9z M22.6,8.9c0,0-0.1-0.1-0.1-0.1c-0.1-0.2-0.3-0.3-0.4-0.4c-2-2.1-4.7-3.3-7.6-3.3
			c-4.8,0-9,3.3-10.2,7.9C5.5,12.7,6,12.2,6,11.9v0c0-0.3,0.1-0.5,0.3-0.7C6.5,11.1,6.7,11,7,11c0.6,0,1,0.5,1,1
			c0.1,0.3,0.7,1,2.9,1c2.3,0,2.9-0.7,3-1.1v0c0-0.5,0.5-1,1-1c0.6,0,1,0.5,1,1c0,0.3,0.6,0.9,2.5,1c1.9-0.1,2.5-0.7,2.5-1v0
			c0-0.3,0.1-0.5,0.3-0.7c0.2-0.2,0.4-0.3,0.7-0.3c0.6,0,1,0.5,1,1c0,0.2,0.5,0.7,1.7,0.9C24.3,11.4,23.6,10,22.6,8.9z M25,14.9
			c-1.1,0-2.1-0.4-3-1.1c-1,0.7-2.2,1.1-3.5,1.1h0c-1.3,0-2.5-0.4-3.5-1.1c-1.1,0.8-2.5,1.2-3.9,1.1h-0.1c-1.4,0.1-2.8-0.3-3.9-1.1
			c-0.9,0.7-1.9,1-3,1.1c0,0.2,0,0.4,0,0.6c0,0.5,0,1,0.1,1.5c0.1,1,0.4,1.9,0.8,2.8C5.9,19.5,6,19,6,18.9v0c0-0.3,0.1-0.5,0.3-0.7
			S6.7,18,7,18c0.6,0,1,0.5,1,1c0.1,0.3,0.7,1,3,1c2.2,0,2.9-0.7,3-1v0c0-0.5,0.5-1,1-1c0.6,0,1,0.5,1,1c0,0.3,0.7,1,3,1
			c2.2,0,2.9-0.7,3-1v0c0-0.5,0.5-1,1-1c0.6,0,1,0.5,1,1c0.1,0.2,0.2,0.3,0.3,0.4c0.4-0.9,0.6-1.8,0.7-2.7c0-0.4,0.1-0.8,0.1-1.1
			C25,15.3,25,15.1,25,14.9z M40.6,17l0.7,1.5c0.2,0.3,0.5,0.6,0.9,0.5h7.5c0.4,0,0.7-0.2,0.9-0.5l0.7-1.5H40.6z"/>
	</g>
</g>
</svg>
